<?xml version="1.0" encoding="utf-8"?>
<!-- Generator: Adobe Illustrator 19.2.1, SVG Export Plug-In . SVG Version: 6.00 Build 0)  -->
<svg version="1.1" id="layer" xmlns="http://www.w3.org/2000/svg" xmlns:xlink="http://www.w3.org/1999/xlink" x="0px" y="0px"
	 viewBox="0 0 652 652" style="enable-background:new 0 0 652 652;" xml:space="preserve">
<style type="text/css">
	.st0{fill:#333333;}
</style>
<g id="Page-1">
	<g id="Nau_Logo_333333_Large">
		<g id="Group">
			<g id="Shape">
				<path class="st0" d="M508.3,407.1c-59,0-90.2-31.2-90.2-90.2v-71.3h30.2v71.3c0,42.1,17.9,60,60,60c42.1,0,60-17.9,60-60v-71.3
					h30.2v71.3C598.5,375.9,567.3,407.1,508.3,407.1L508.3,407.1z"/>
				<path class="st0" d="M205.6,405.3h-30.2v-71.3c0-42.1-17.9-60-60-60c-42.1,0-60,17.9-60,60v71.3H25.2v-71.3
					c0-59,31.2-90.2,90.2-90.2c59,0,90.2,31.2,90.2,90.2V405.3L205.6,405.3z"/>
				<path class="st0" d="M311.7,243.9c-0.3,0-0.6,0-1,0c-19.4,0.1-35.1,4-49.4,9.5v30.8c10.4-3.8,29.4-10.1,49.4-10.1
					c0.3,0,0.7,0,1,0c42.5,0,62.3,19.1,62.3,60v71.3h30.2v-71.3C404.2,275.9,371.4,243.9,311.7,243.9L311.7,243.9z"/>
				<path class="st0" d="M312,407.1c0.3,0,0.6,0,1,0c19.4-0.1,35.1-4,49.4-9.5v-30.8c-10.4,3.8-29.4,10.1-49.4,10.1
					c-0.3,0-0.7,0-1,0c-42.5,0-62.3-19.1-62.3-60v-71.3h-30.2v71.3C219.5,375.1,252.4,407.1,312,407.1L312,407.1z"/>
			</g>
			<path id="Shape_1_" class="st0" d="M609.6,248.7c0.4-1,1-1.8,1.8-2.5c0.7-0.7,1.6-1.3,2.6-1.7c1-0.4,2-0.6,3.1-0.6
				c1.1,0,2.2,0.2,3.1,0.6c1,0.4,1.8,1,2.6,1.7c0.7,0.7,1.3,1.6,1.7,2.5c0.4,1,0.6,2,0.6,3.2c0,1.2-0.2,2.2-0.6,3.2
				c-0.4,1-1,1.8-1.7,2.6c-0.7,0.7-1.6,1.3-2.6,1.7c-1,0.4-2,0.6-3.1,0.6c-1.1,0-2.2-0.2-3.1-0.6c-1-0.4-1.8-1-2.6-1.7
				c-0.7-0.7-1.3-1.6-1.8-2.6c-0.4-1-0.6-2.1-0.6-3.2C609,250.8,609.2,249.7,609.6,248.7L609.6,248.7z M611,254.7
				c0.3,0.8,0.8,1.6,1.4,2.2c0.6,0.6,1.3,1.1,2.1,1.5c0.8,0.4,1.7,0.5,2.6,0.5c0.9,0,1.8-0.2,2.6-0.5c0.8-0.4,1.5-0.8,2.1-1.5
				c0.6-0.6,1.1-1.4,1.4-2.2c0.3-0.8,0.5-1.8,0.5-2.8c0-1-0.2-1.9-0.5-2.7c-0.3-0.8-0.8-1.6-1.4-2.2c-0.6-0.6-1.3-1.1-2.1-1.4
				c-0.8-0.4-1.7-0.5-2.6-0.5c-0.9,0-1.8,0.2-2.6,0.5c-0.8,0.4-1.5,0.8-2.1,1.4c-0.6,0.6-1.1,1.3-1.4,2.2c-0.3,0.8-0.5,1.7-0.5,2.7
				C610.4,252.9,610.6,253.8,611,254.7L611,254.7z M617.6,247.2c1.1,0,2,0.2,2.5,0.7c0.5,0.4,0.8,1.1,0.8,2c0,0.8-0.2,1.5-0.7,1.9
				c-0.5,0.4-1.1,0.6-1.8,0.7l2.7,4.2h-1.6l-2.6-4.1h-1.6v4.1H614v-9.4L617.6,247.2L617.6,247.2z M617,251.4c0.3,0,0.6,0,0.9,0
				c0.3,0,0.6-0.1,0.8-0.2c0.2-0.1,0.4-0.3,0.5-0.5c0.1-0.2,0.2-0.5,0.2-0.9c0-0.3-0.1-0.6-0.2-0.8c-0.1-0.2-0.3-0.3-0.5-0.4
				c-0.2-0.1-0.4-0.2-0.7-0.2c-0.3,0-0.5-0.1-0.7-0.1h-1.9v3H617L617,251.4z"/>
		</g>
	</g>
</g>
</svg>
